<svg width="80" height="50" viewBox="0 0 80 50" fill="none" xmlns="http://www.w3.org/2000/svg">
<path d="M19.5394 50.2021C19.5171 50.2038 19.4946 50.2007 19.4736 50.1929C19.4526 50.1851 19.4336 50.1729 19.4178 50.157C19.4019 50.1411 19.3897 50.122 19.382 50.1009C19.3742 50.0799 19.3711 50.0574 19.3729 50.035V41.0592C19.3748 41.0455 19.3735 41.0315 19.3692 41.0184C19.3648 41.0052 19.3574 40.9933 19.3477 40.9835C19.3379 40.9737 19.326 40.9663 19.3129 40.9619C19.2998 40.9575 19.2859 40.9563 19.2722 40.9582H16.3874C16.3649 40.9599 16.3423 40.9567 16.3212 40.949C16.3 40.9413 16.2807 40.9291 16.2646 40.9133C16.2485 40.8975 16.2359 40.8784 16.2277 40.8573C16.2195 40.8363 16.2158 40.8137 16.217 40.7911V38.9221C16.2159 38.8994 16.2195 38.8767 16.2277 38.8554C16.2359 38.8342 16.2484 38.8149 16.2644 38.7988C16.2805 38.7827 16.2997 38.7701 16.3209 38.7619C16.3421 38.7537 16.3647 38.7501 16.3874 38.7512H24.8288C24.8512 38.7506 24.8734 38.7547 24.8941 38.7631C24.9148 38.7716 24.9336 38.7842 24.9492 38.8003C24.9648 38.8163 24.977 38.8354 24.9849 38.8564C24.9929 38.8773 24.9964 38.8997 24.9953 38.9221V40.7989C24.9964 40.8211 24.9929 40.8433 24.9849 40.8641C24.9769 40.8849 24.9647 40.9038 24.949 40.9195C24.9333 40.9352 24.9145 40.9475 24.8938 40.9555C24.8731 40.9635 24.851 40.9671 24.8288 40.966H21.9401C21.9265 40.964 21.9125 40.9653 21.8994 40.9697C21.8863 40.9741 21.8744 40.9815 21.8647 40.9913C21.8549 41.0011 21.8475 41.013 21.8432 41.0261C21.8388 41.0393 21.8375 41.0533 21.8395 41.067V50.0427C21.8412 50.0651 21.8381 50.0876 21.8304 50.1087C21.8226 50.1298 21.8104 50.1489 21.7946 50.1648C21.7787 50.1807 21.7597 50.1929 21.7387 50.2007C21.7177 50.2085 21.6953 50.2116 21.673 50.2098L19.5394 50.2021Z" fill="#222220"/>
<path d="M26.2692 47.6107C26.0175 46.8335 25.9517 46.1769 25.9517 44.4789C25.9517 42.7808 26.0175 42.1475 26.2692 41.3471C26.8578 39.4936 28.4338 38.5688 30.4318 38.5688C32.4299 38.5688 34.0059 39.4936 34.5944 41.3471C34.8461 42.1242 34.912 42.777 34.912 44.4789C34.912 46.1808 34.8461 46.8102 34.5944 47.6107C34.0059 49.4602 32.4299 50.3889 30.4318 50.3889C28.4338 50.3889 26.8578 49.4602 26.2692 47.6107ZM32.2285 46.9346C32.3602 46.546 32.4105 45.9748 32.4105 44.4789C32.4105 42.9829 32.3602 42.4234 32.2285 42.0193C32.0939 41.6497 31.8494 41.3305 31.528 41.105C31.2067 40.8794 30.824 40.7585 30.4318 40.7585C30.0397 40.7585 29.657 40.8794 29.3356 41.105C29.0142 41.3305 28.7697 41.6497 28.6351 42.0193C28.5035 42.4078 28.4531 42.979 28.4531 44.4789C28.4531 45.9787 28.5035 46.5305 28.6351 46.9346C28.7697 47.3042 29.0142 47.6234 29.3356 47.8489C29.657 48.0744 30.0397 48.1953 30.4318 48.1953C30.824 48.1953 31.2067 48.0744 31.528 47.8489C31.8494 47.6234 32.0939 47.3042 32.2285 46.9346Z" fill="#222220"/>
<path d="M40.1974 48.8229C40.1609 48.784 40.1406 48.7326 40.1406 48.6791C40.1406 48.6257 40.1609 48.5743 40.1974 48.5354L41.4714 47.0705C41.487 47.0524 41.5063 47.0379 41.5281 47.0279C41.5498 47.018 41.5734 47.0128 41.5972 47.0128C41.6211 47.0128 41.6447 47.018 41.6664 47.0279C41.6881 47.0379 41.7074 47.0524 41.7231 47.0705C42.5586 47.7887 43.6129 48.1998 44.7124 48.2362C45.9012 48.2362 46.5711 47.6805 46.5711 46.8723C46.5711 46.2001 46.1839 45.7766 44.8092 45.594L44.2052 45.5085C41.8818 45.1899 40.6001 44.0941 40.6001 42.0736C40.6001 39.9676 42.1761 38.5766 44.6427 38.5766C46.0274 38.5481 47.3847 38.9662 48.5149 39.7694C48.6156 39.8394 48.6311 39.9054 48.5498 40.022L47.5237 41.5762C47.5119 41.595 47.4964 41.6113 47.4783 41.624C47.4602 41.6368 47.4397 41.6457 47.4181 41.6504C47.3964 41.6552 47.3741 41.6555 47.3523 41.6514C47.3306 41.6473 47.3098 41.639 47.2913 41.6268C46.5164 41.0709 45.5913 40.7647 44.6389 40.7486C43.6321 40.7486 43.1132 41.2732 43.1132 41.9959C43.1132 42.6526 43.5817 43.0722 44.8905 43.2587L45.4946 43.3442C47.845 43.6628 49.0842 44.7391 49.0842 46.8102C49.0842 48.8812 47.5585 50.416 44.604 50.416C42.815 50.3888 41.088 49.6816 40.1974 48.8229Z" fill="#222220"/>
<path d="M50.4355 44.4788C50.4355 42.7109 50.5014 42.1203 50.7531 41.3703C51.3571 39.5014 52.817 38.561 54.815 38.561C56.7511 38.561 58.1529 39.5014 58.7918 41.1022C58.8036 41.1204 58.8108 41.1411 58.8128 41.1627C58.8147 41.1843 58.8113 41.2061 58.8029 41.226C58.7945 41.246 58.7813 41.2636 58.7645 41.2772C58.7477 41.2909 58.7278 41.3002 58.7066 41.3043L56.8789 42.128C56.8587 42.1411 56.8358 42.1495 56.8119 42.1524C56.788 42.1553 56.7638 42.1527 56.741 42.1449C56.7183 42.137 56.6976 42.1241 56.6806 42.107C56.6635 42.09 56.6506 42.0692 56.6427 42.0464C56.518 41.6645 56.275 41.3325 55.9489 41.099C55.6229 40.8655 55.231 40.7428 54.8305 40.7486C54.4436 40.7277 54.0615 40.8421 53.7493 41.0724C53.4372 41.3027 53.2144 41.6346 53.119 42.0115C52.9835 42.4311 52.9331 42.8352 52.9331 44.471C52.9331 46.1069 52.9835 46.5071 53.119 46.9267C53.2159 47.3021 53.4393 47.6323 53.7514 47.861C54.0634 48.0898 54.4447 48.2032 54.8305 48.1818C55.2304 48.1873 55.6216 48.0649 55.9475 47.8322C56.2733 47.5996 56.5168 47.2688 56.6427 46.8879C56.6508 46.8652 56.6637 46.8446 56.6807 46.8275C56.6976 46.8105 56.7181 46.7974 56.7407 46.7892C56.7633 46.781 56.7874 46.778 56.8113 46.7803C56.8352 46.7826 56.8583 46.7901 56.8789 46.8024L58.7066 47.6262C58.7278 47.6303 58.7477 47.6396 58.7645 47.6532C58.7813 47.6668 58.7945 47.6844 58.8029 47.7044C58.8113 47.7244 58.8147 47.7461 58.8128 47.7677C58.8108 47.7893 58.8036 47.8101 58.7918 47.8282C58.1529 49.4291 56.7434 50.3733 54.815 50.3733C52.817 50.3733 51.3571 49.4291 50.7531 47.5601C50.5014 46.8335 50.4355 46.239 50.4355 44.4788Z" fill="#222220"/>
<path d="M63.4541 38.922C63.4657 38.8724 63.494 38.8283 63.5342 38.7971C63.5744 38.766 63.6241 38.7497 63.6748 38.7511H65.7891C65.8392 38.7506 65.888 38.7673 65.9274 38.7984C65.9668 38.8294 65.9945 38.873 66.0059 38.922L69.8781 50.0349C69.9091 50.1359 69.8781 50.2019 69.7581 50.2019H67.578C67.5276 50.2066 67.4772 50.192 67.437 50.161C67.3968 50.13 67.3697 50.085 67.3612 50.0349L66.7068 48.0299H62.699L62.064 50.0349C62.0546 50.0853 62.0267 50.1304 61.9859 50.1613C61.9451 50.1922 61.8942 50.2067 61.8433 50.2019H59.6322C59.5122 50.2019 59.4812 50.1359 59.5122 50.0349L63.4541 38.922ZM66.0214 45.9161L64.7319 41.9101H64.6661L63.3728 45.9161H66.0214Z" fill="#222220"/>
<path d="M71.1909 38.9222C71.1892 38.8996 71.1923 38.877 71.2 38.8557C71.2078 38.8345 71.2199 38.8151 71.2356 38.799C71.2514 38.7828 71.2704 38.7702 71.2914 38.7619C71.3124 38.7537 71.3349 38.7501 71.3574 38.7512H73.3709C73.43 38.7489 73.4886 38.7637 73.5394 38.7941C73.5903 38.8244 73.6313 38.8689 73.6575 38.9222L77.6846 46.1261H77.7698V38.9222C77.7681 38.8996 77.7712 38.877 77.7789 38.8557C77.7867 38.8345 77.7988 38.8151 77.8145 38.799C77.8303 38.7828 77.8493 38.7702 77.8703 38.7619C77.8913 38.7537 77.9138 38.7501 77.9363 38.7512H79.8337C79.8562 38.7501 79.8787 38.7537 79.8996 38.7619C79.9206 38.7702 79.9396 38.7828 79.9554 38.799C79.9711 38.8151 79.9833 38.8345 79.991 38.8557C79.9987 38.877 80.0018 38.8996 80.0002 38.9222V50.035C80.0019 50.0574 79.9988 50.0799 79.991 50.101C79.9833 50.122 79.9711 50.1412 79.9553 50.1571C79.9394 50.1729 79.9204 50.1852 79.8994 50.193C79.8784 50.2007 79.856 50.2039 79.8337 50.2021H77.8317C77.7729 50.2053 77.7145 50.1912 77.6636 50.1615C77.6127 50.1318 77.5715 50.0879 77.5452 50.035L73.5026 42.8428H73.4174V50.035C73.4191 50.0574 73.416 50.0799 73.4083 50.101C73.4005 50.122 73.3883 50.1412 73.3725 50.1571C73.3567 50.1729 73.3376 50.1852 73.3166 50.193C73.2956 50.2007 73.2732 50.2039 73.2509 50.2021H71.3535C71.3312 50.2039 71.3088 50.2007 71.2878 50.193C71.2668 50.1852 71.2477 50.1729 71.2319 50.1571C71.2161 50.1412 71.2039 50.122 71.1961 50.101C71.1884 50.0799 71.1852 50.0574 71.187 50.035L71.1909 38.9222Z" fill="#222220"/>
<path d="M45.6923 19.7196C45.6923 9.06135 36.2131 0.388672 24.5461 0.388672C12.8791 0.388672 3.39216 9.06135 3.39216 19.7196C3.39216 23.7839 3.77938 25.3148 5.20823 26.9274C5.81955 27.5077 6.56012 27.9331 7.36833 28.1683C8.17654 28.4035 9.02903 28.4416 9.85489 28.2796C10.2147 28.2121 10.5674 28.1106 10.9081 27.9765C10.0214 28.3184 8.94105 29.3287 8.31762 30.5993C7.609 32.0486 5.06108 37.5701 3.8181 38.4871C2.96149 39.098 2.18142 39.8103 1.49477 40.6086C0.851985 41.3236 -0.387124 41.9647 0.112392 42.4426C0.611908 42.9205 2.63708 42.7573 3.83746 41.5295C4.3896 40.9881 4.8315 40.3441 5.13853 39.6333C6.05624 37.2709 8.57318 32.4916 9.39797 31.5746C9.47065 31.4954 9.55108 31.4238 9.63804 31.3609C9.73573 31.2797 9.85868 31.2355 9.9855 31.2359C10.1123 31.2363 10.235 31.2813 10.3321 31.3631C10.4293 31.4449 10.4948 31.5583 10.5173 31.6835C10.5397 31.8088 10.5177 31.938 10.4551 32.0486C10.3803 32.1843 10.3168 32.3259 10.2653 32.4721C9.68064 34.2479 7.77938 40.4609 6.32343 41.9647C5.54898 42.7612 5.33214 43.4878 4.68935 44.0629C3.41152 45.2286 2.47832 45.6171 2.91975 46.1495C3.36118 46.6818 4.78229 46.1844 6.07948 45.0693C6.60926 44.6275 7.06432 44.1027 7.42701 43.515C7.44604 43.4839 7.46286 43.4514 7.47735 43.4179C7.53156 43.3208 7.58577 43.2042 7.64385 43.076V43.0527C8.58093 40.9505 10.1027 35.6273 11.396 34.3023C12.2479 33.4319 12.6545 33.0589 15.2373 33.0783C17.3772 33.187 19.4987 32.6332 21.3147 31.4921C23.1306 30.3509 24.5534 28.6774 25.3902 26.6981L25.4832 26.4883C27.1211 22.9913 30.7106 22.9058 32.7862 22.9913C32.8401 22.993 32.8926 23.0097 32.9378 23.0394C32.983 23.069 33.0192 23.1107 33.0424 23.1596C33.0656 23.2086 33.0749 23.263 33.0693 23.3169C33.0637 23.3708 33.0435 23.4222 33.0107 23.4653C32.8288 23.7101 32.6235 23.9821 32.5693 24.087C32.124 24.8641 33.0921 25.0817 34.3776 23.7334C35.2024 22.863 34.9546 22.1792 34.9236 21.9849C34.8916 21.817 34.8139 21.6614 34.699 21.5352C34.5842 21.409 34.4368 21.3171 34.2731 21.2699C34.2068 21.2615 34.1437 21.2359 34.0902 21.1958C34.0366 21.1556 33.9943 21.1022 33.9674 21.0408C33.9405 20.9794 33.9299 20.912 33.9367 20.8453C33.9434 20.7785 33.9673 20.7146 34.0059 20.6599C34.0912 20.443 34.2192 20.2455 34.3822 20.0793C34.5452 19.9131 34.7398 19.7815 34.9546 19.6924C35.6256 19.4586 36.3251 19.3174 37.034 19.2727C38.0291 19.1367 38.699 18.2858 38.5519 17.4776C38.522 17.3264 38.4656 17.1816 38.3854 17.0502C38.2071 16.6907 38.0607 16.3163 37.9478 15.9311C37.0224 13.728 35.0359 12.4768 32.5693 12.9664C32.4061 12.997 32.2446 13.0359 32.0853 13.083C32.0244 13.1012 31.9593 13.0989 31.8998 13.0765C31.8404 13.054 31.7899 13.0126 31.7561 12.9586C30.7752 11.3774 29.45 10.0396 27.8801 9.04581C27.4928 8.80878 26.7532 8.92535 26.8307 10.0017C26.8342 10.0522 26.8246 10.1028 26.803 10.1486C26.7813 10.1944 26.7483 10.2339 26.7071 10.2631C26.6658 10.2924 26.6178 10.3105 26.5676 10.3158C26.5173 10.321 26.4666 10.3132 26.4202 10.2931C26.2421 10.2154 26.0679 10.1454 25.8897 10.0833C25.3012 9.87344 24.2479 10.398 25.7426 12.6361C26.3522 13.5633 27.1588 14.3436 28.1046 14.9208C28.2157 14.9903 28.3048 15.0901 28.3615 15.2085C28.4182 15.3269 28.4401 15.459 28.4246 15.5894C28.4092 15.7199 28.3571 15.8432 28.2743 15.945C28.1916 16.0468 28.0817 16.1228 27.9575 16.1642C27.6152 16.2609 27.2593 16.3003 26.9043 16.2808C26.1896 16.2527 25.4737 16.2787 24.7629 16.3585C24.4686 16.3974 24.1705 16.4401 23.8723 16.4945C20.9389 17.0244 18.2804 18.5615 16.3525 20.8425C15.8142 21.4836 15.094 22.3968 14.2692 23.3215C13.4605 24.2489 12.5514 25.083 11.5587 25.8083C10.9697 26.2404 10.299 26.5471 9.58771 26.7098C8.99735 26.8231 8.38831 26.7896 7.81386 26.6122C7.2394 26.4347 6.71703 26.1187 6.29245 25.6918C5.35537 24.732 4.87135 23.5003 4.87135 19.7196C4.87135 9.88121 13.6961 1.87686 24.5422 1.87686C35.3883 1.87686 44.2169 9.88121 44.2169 19.7196C44.2291 20.8334 44.063 21.9419 43.7252 23.0029C42.9507 24.9146 40.306 28.0231 38.6913 29.5735C34.2189 33.9059 37.2082 33.7233 38.6409 33.0705C38.8268 32.985 41.1656 32.1885 42.8036 30.7858C43.8646 29.8804 44.3873 28.5088 44.6661 27.6307C45.6923 24.5222 45.6923 22.2918 45.6923 19.7196Z" fill="black"/>
</svg>
