<?xml version="1.0" encoding="utf-8"?>
<!-- Generator: Adobe Illustrator 23.0.5, SVG Export Plug-In . SVG Version: 6.00 Build 0)  -->
<svg version="1.1" id="Слой_1" xmlns="http://www.w3.org/2000/svg" xmlns:xlink="http://www.w3.org/1999/xlink" x="0px" y="0px"
	 viewBox="0 0 24 24" style="enable-background:new 0 0 24 24;" xml:space="preserve">
<style type="text/css">
	.st0{fill:#002B55;}
</style>
<path class="st0" d="M19,12.5H5c-0.3,0-0.5-0.2-0.5-0.5s0.2-0.5,0.5-0.5h14c0.3,0,0.5,0.2,0.5,0.5S19.3,12.5,19,12.5z"/>
<path class="st0" d="M12,19.5c-0.1,0-0.3,0-0.4-0.1c-0.2-0.2-0.2-0.5,0-0.7l6.6-6.6l-6.6-6.6c-0.2-0.2-0.2-0.5,0-0.7s0.5-0.2,0.7,0
	l7,7c0.2,0.2,0.2,0.5,0,0.7l-7,7C12.3,19.5,12.1,19.5,12,19.5z"/>
</svg>
