<?xml version="1.0" encoding="utf-8"?>
<!-- Generator: Adobe Illustrator 23.0.5, SVG Export Plug-In . SVG Version: 6.00 Build 0)  -->
<svg version="1.1" id="Слой_1" xmlns="http://www.w3.org/2000/svg" xmlns:xlink="http://www.w3.org/1999/xlink" x="0px" y="0px"
	 viewBox="0 0 32 32" style="enable-background:new 0 0 32 32;" xml:space="preserve">
<style type="text/css">
	.st0{fill:#262C3C;}
</style>
<path class="st0" d="M28,23.4H4c-0.3,0-0.6-0.2-0.7-0.5c-0.1-0.3,0-0.7,0.3-0.8c0,0,3.7-2.6,3.7-11.4c0-2.3,0.9-4.5,2.6-6.2
	c1.7-1.7,3.8-2.6,6.2-2.6c2.3,0,4.5,0.9,6.2,2.6c1.7,1.7,2.6,3.8,2.6,6.2c0,8.7,3.6,11.4,3.7,11.4c0.3,0.2,0.4,0.5,0.3,0.8
	S28.3,23.4,28,23.4z M5.8,21.9h20.5c-1.3-1.7-3-5.1-3-11.3c0-1.9-0.8-3.8-2.1-5.1c-1.4-1.4-3.2-2.1-5.1-2.1c-1.9,0-3.8,0.8-5.1,2.1
	c-1.4,1.4-2.1,3.2-2.1,5.1C8.8,16.8,7,20.2,5.8,21.9z"/>
<path class="st0" d="M16,30.1c-0.6,0-1.2-0.2-1.7-0.5c-0.5-0.3-1-0.7-1.3-1.2c-0.2-0.4-0.1-0.8,0.3-1c0.4-0.2,0.8-0.1,1,0.3
	c0.2,0.3,0.4,0.5,0.7,0.7c0.6,0.3,1.3,0.3,1.9,0c0.3-0.2,0.5-0.4,0.7-0.7c0.2-0.4,0.7-0.5,1-0.3c0.4,0.2,0.5,0.7,0.3,1
	c-0.3,0.5-0.7,0.9-1.2,1.2C17.2,29.9,16.6,30.1,16,30.1z"/>
</svg>
