<?xml version="1.0" encoding="utf-8"?>
<!-- Generator: Adobe Illustrator 23.0.5, SVG Export Plug-In . SVG Version: 6.00 Build 0)  -->
<svg version="1.1" id="Слой_1" xmlns="http://www.w3.org/2000/svg" xmlns:xlink="http://www.w3.org/1999/xlink" x="0px" y="0px"
	 viewBox="0 0 33 32" style="enable-background:new 0 0 33 32;" xml:space="preserve">
<style type="text/css">
	.st0{fill:#262C3C;}
</style>
<path class="st0" d="M16.5,30.1c-1.7,0-3.3-0.3-4.9-0.9c-2.8-1-5.3-3-6.9-5.5c-1.6-2.5-2.4-5.6-2.2-8.6c0.2-3,1.4-5.9,3.3-8.2
	c2-2.3,4.7-3.9,7.6-4.6c2.9-0.7,6.1-0.4,8.8,0.9c0.4,0.2,0.5,0.6,0.4,1c-0.2,0.4-0.6,0.5-1,0.4c-2.5-1.1-5.3-1.4-7.9-0.8
	c-2.6,0.6-5,2-6.8,4.1c-1.8,2-2.8,4.7-3,7.3s0.5,5.4,2,7.7c1.5,2.3,3.7,4,6.2,5c2.5,0.9,5.3,1,7.9,0.3c2.6-0.8,4.9-2.4,6.5-4.5
	c1.6-2.2,2.5-4.8,2.5-7.5v-1.2c0-0.4,0.3-0.8,0.8-0.8s0.8,0.3,0.8,0.8V16c0,3-1,6-2.8,8.4c-1.8,2.4-4.4,4.2-7.3,5.1
	C19.2,29.9,17.9,30.1,16.5,30.1z"/>
<path class="st0" d="M16.5,19.4c-0.2,0-0.4-0.1-0.5-0.2l-4-4c-0.3-0.3-0.3-0.8,0-1.1s0.8-0.3,1.1,0l3.5,3.5L29.3,4.8
	c0.3-0.3,0.8-0.3,1.1,0c0.3,0.3,0.3,0.8,0,1.1L17,19.2C16.9,19.4,16.7,19.4,16.5,19.4z"/>
</svg>
