<svg width="30" height="26" viewBox="0 0 30 26" fill="none" xmlns="http://www.w3.org/2000/svg">
<path d="M28.3333 17.6667C28.3333 21.3487 25.3487 24.3333 21.6667 24.3333C20.4733 24.3333 19.352 24.02 18.3827 23.47C17.3561 22.8881 16.5022 22.0444 15.9079 21.025C15.3137 20.0055 15.0004 18.8467 15 17.6667C15 15.9547 15.6453 14.3933 16.7053 13.2133C17.3301 12.5161 18.0949 11.9586 18.9498 11.5772C19.8047 11.1958 20.7305 10.9991 21.6667 11C25.3487 11 28.3333 13.9847 28.3333 17.6667Z" stroke="#535460" stroke-width="1.5" stroke-linecap="round" stroke-linejoin="round"/>
<path d="M21.6665 5V11C20.7304 10.9991 19.8046 11.1958 18.9496 11.5772C18.0947 11.9586 17.3299 12.5161 16.7052 13.2133C15.6049 14.4354 14.9972 16.0223 14.9998 17.6667C15.0007 18.0533 15.0327 18.4307 15.0958 18.7987C15.2638 19.772 15.6458 20.6959 16.2141 21.5037C16.7825 22.3116 17.5231 22.9831 18.3825 23.47C16.6078 24.0067 14.2518 24.3333 11.6665 24.3333C6.14384 24.3333 1.6665 22.8407 1.6665 21V5" stroke="#535460" stroke-width="1.5" stroke-linecap="round" stroke-linejoin="round"/>
<path d="M1.6665 15.667C1.6665 17.5077 6.14384 19.0003 11.6665 19.0003C12.8712 19.0003 14.0265 18.9297 15.0958 18.799M1.6665 10.3337C1.6665 12.1743 6.14384 13.667 11.6665 13.667C13.5038 13.667 15.2258 13.5017 16.7052 13.2137M24.6665 16.3337L20.9998 20.0003L18.9998 18.0003M21.6665 5.00033C21.6665 6.84099 17.1892 8.33366 11.6665 8.33366C6.14384 8.33366 1.6665 6.84099 1.6665 5.00033C1.6665 3.15966 6.14384 1.66699 11.6665 1.66699C17.1892 1.66699 21.6665 3.15966 21.6665 5.00033Z" stroke="#535460" stroke-width="1.5" stroke-linecap="round" stroke-linejoin="round"/>
</svg>
