<?xml version="1.0" encoding="utf-8"?>
<!-- Generator: Adobe Illustrator 23.0.5, SVG Export Plug-In . SVG Version: 6.00 Build 0)  -->
<svg version="1.1" id="Слой_1" xmlns="http://www.w3.org/2000/svg" xmlns:xlink="http://www.w3.org/1999/xlink" x="0px" y="0px"
	 viewBox="0 0 30 26" style="enable-background:new 0 0 30 26;" xml:space="preserve">
<style type="text/css">
	.st0{fill:#535460;}
</style>
<path class="st0" d="M21.7,25.1c-1.3,0-2.5-0.3-3.7-1c-1.1-0.6-2.1-1.6-2.8-2.7c-0.7-1.1-1-2.4-1-3.7c0-1.8,0.7-3.6,1.9-5
	c0.7-0.8,1.5-1.4,2.5-1.8c1-0.4,2-0.6,3-0.6c0,0,0,0,0,0c4.1,0,7.4,3.3,7.4,7.4C29.1,21.8,25.8,25.1,21.7,25.1z M21.7,11.8
	c-0.8,0-1.6,0.2-2.4,0.5c-0.8,0.3-1.4,0.8-2,1.5c-1,1.1-1.5,2.5-1.5,4c0,1,0.3,2.1,0.8,3s1.3,1.7,2.2,2.2c0.9,0.5,1.9,0.8,2.9,0.8
	c3.3,0,5.9-2.7,5.9-5.9C27.6,14.4,24.9,11.8,21.7,11.8C21.7,11.8,21.7,11.8,21.7,11.8z"/>
<path class="st0" d="M11.7,25.1c-5.3,0-10.8-1.4-10.8-4.1V5c0-0.4,0.3-0.8,0.8-0.8S2.4,4.6,2.4,5v16c0,1,3.7,2.6,9.3,2.6
	c1.8,0,3.5-0.2,5-0.5c-0.4-0.4-0.7-0.8-1-1.2c-0.6-0.9-1.1-1.9-1.2-3c-0.1-0.4-0.1-0.8-0.1-1.3c0-1.8,0.7-3.6,1.9-5
	c0.7-0.8,1.5-1.4,2.5-1.8c0.7-0.3,1.5-0.5,2.3-0.6V5c0-0.4,0.3-0.8,0.8-0.8s0.8,0.3,0.8,0.8v6c0,0.2-0.1,0.4-0.2,0.5
	c-0.1,0.1-0.3,0.2-0.5,0.2h0c-0.9,0-1.6,0.2-2.4,0.5c-0.8,0.3-1.4,0.8-2,1.5c-1,1.1-1.5,2.5-1.5,4c0,0.3,0,0.7,0.1,1
	c0.1,0.9,0.5,1.7,1,2.4c0.5,0.7,1.2,1.3,1.9,1.7c0.3,0.1,0.4,0.4,0.4,0.7c0,0.3-0.2,0.5-0.5,0.6C16.7,24.8,14.2,25.1,11.7,25.1z"/>
<path class="st0" d="M21,20.8c-0.2,0-0.4-0.1-0.5-0.2l-2-2c-0.3-0.3-0.3-0.8,0-1.1s0.8-0.3,1.1,0l1.5,1.5l3.1-3.1
	c0.3-0.3,0.8-0.3,1.1,0s0.3,0.8,0,1.1l-3.7,3.7C21.4,20.7,21.2,20.8,21,20.8z M11.7,19.8c-5.3,0-10.8-1.4-10.8-4.1
	c0-0.4,0.3-0.8,0.8-0.8s0.8,0.3,0.8,0.8c0,1,3.7,2.6,9.3,2.6c1.2,0,2.3-0.1,3.3-0.2c0.4-0.1,0.8,0.2,0.8,0.7s-0.2,0.8-0.7,0.8
	C14.1,19.7,12.9,19.8,11.7,19.8z M11.7,14.4c-5.3,0-10.8-1.4-10.8-4.1c0-0.4,0.3-0.8,0.8-0.8s0.8,0.3,0.8,0.8c0,1,3.7,2.6,9.3,2.6
	c1.7,0,3.4-0.2,4.9-0.4c0.4-0.1,0.8,0.2,0.9,0.6c0.1,0.4-0.2,0.8-0.6,0.9C15.3,14.3,13.5,14.4,11.7,14.4z M11.7,9.1
	C6.3,9.1,0.9,7.7,0.9,5s5.4-4.1,10.8-4.1S22.4,2.3,22.4,5S17,9.1,11.7,9.1z M11.7,2.4C6.1,2.4,2.4,4,2.4,5s3.7,2.6,9.3,2.6
	c5.6,0,9.2-1.6,9.2-2.6S17.2,2.4,11.7,2.4z"/>
</svg>
