<?xml version="1.0" encoding="utf-8"?>
<!-- Generator: Adobe Illustrator 23.0.5, SVG Export Plug-In . SVG Version: 6.00 Build 0)  -->
<svg version="1.1" id="Слой_1" xmlns="http://www.w3.org/2000/svg" xmlns:xlink="http://www.w3.org/1999/xlink" x="0px" y="0px"
	 viewBox="0 0 29 30" style="enable-background:new 0 0 29 30;" xml:space="preserve">
<style type="text/css">
	.st0{fill:#262C3C;}
</style>
<path class="st0" d="M14.5,29.1C6.7,29.1,0.4,22.8,0.4,15S6.7,0.9,14.5,0.9c0.4,0,0.8,0.3,0.8,0.8v12.6h12.6c0.4,0,0.8,0.3,0.8,0.8
	C28.6,22.8,22.3,29.1,14.5,29.1z M13.8,2.4C7.2,2.8,1.9,8.3,1.9,15c0,6.9,5.6,12.6,12.6,12.6c6.7,0,12.2-5.2,12.6-11.8H14.5
	c-0.4,0-0.8-0.3-0.8-0.8V2.4z"/>
<path class="st0" d="M27.2,11.8h-8.7c-0.4,0-0.8-0.3-0.8-0.8V2.3c0-0.2,0.1-0.5,0.3-0.6c0.2-0.1,0.4-0.2,0.7-0.1
	c2.2,0.7,4.1,1.9,5.7,3.5s2.8,3.6,3.5,5.7c0.1,0.2,0,0.5-0.1,0.7C27.7,11.6,27.5,11.8,27.2,11.8z M19.3,10.3h6.9
	c-0.6-1.5-1.6-3-2.8-4.1S20.8,4,19.3,3.3V10.3z"/>
</svg>
