<?xml version="1.0" encoding="utf-8"?>
<!-- Generator: Adobe Illustrator 23.0.5, SVG Export Plug-In . SVG Version: 6.00 Build 0)  -->
<svg version="1.1" id="Слой_1" xmlns="http://www.w3.org/2000/svg" xmlns:xlink="http://www.w3.org/1999/xlink" x="0px" y="0px"
	 viewBox="0 0 27 30" style="enable-background:new 0 0 27 30;" xml:space="preserve">
<style type="text/css">
	.st0{fill:#535460;}
</style>
<path class="st0" d="M13.7,29.8c-0.1,0-0.2,0-0.2,0c-3.7-1.2-6.8-3.5-9.1-6.7c-2.3-3.1-3.5-6.8-3.5-10.7V5.2c0-0.3,0.2-0.6,0.5-0.7
	l12-3.5c0.1,0,0.3,0,0.4,0l12,3.5c0.3,0.1,0.5,0.4,0.5,0.7v7.2c0,3.9-1.2,7.6-3.5,10.7c-2.3,3.1-5.4,5.4-9.1,6.7
	C13.8,29.7,13.7,29.8,13.7,29.8z M2.4,5.7v6.6c0,3.5,1.1,6.9,3.2,9.8c2,2.8,4.8,4.9,8.1,6c3.3-1.1,6.1-3.2,8.1-6
	c2.1-2.9,3.2-6.3,3.2-9.8V5.7L13.7,2.4L2.4,5.7z"/>
<path class="st0" d="M12.3,19.8c-0.2,0-0.4-0.1-0.5-0.2l-4.7-4.7c-0.3-0.3-0.3-0.8,0-1.1s0.8-0.3,1.1,0l4.1,4.1l7.5-7.5
	c0.3-0.3,0.8-0.3,1.1,0s0.3,0.8,0,1.1l-8,8C12.7,19.7,12.5,19.8,12.3,19.8z"/>
</svg>
