<?xml version="1.0" encoding="utf-8"?>
<!-- Generator: Adobe Illustrator 23.0.5, SVG Export Plug-In . SVG Version: 6.00 Build 0)  -->
<svg version="1.1" id="Слой_1" xmlns="http://www.w3.org/2000/svg" xmlns:xlink="http://www.w3.org/1999/xlink" x="0px" y="0px"
	 viewBox="0 0 28 28" style="enable-background:new 0 0 28 28;" xml:space="preserve">
<style type="text/css">
	.st0{fill:#262C3C;}
</style>
<path class="st0" d="M21.8,27.3c-1.4,0-2.7-0.5-3.7-1.5L12,19.7c-0.3-0.3-0.3-0.8,0-1.1s0.8-0.3,1.1,0l6.1,6.1
	c1.5,1.5,3.9,1.4,5.5-0.1c1.5-1.5,1.6-4,0.1-5.5l-5.3-5.3c-0.3-0.3-0.3-0.8,0-1.1s0.8-0.3,1.1,0l5.3,5.3c2.1,2.1,2,5.5-0.1,7.6
	C24.6,26.7,23.2,27.3,21.8,27.3z M8.1,15.5c-0.2,0-0.4-0.1-0.5-0.2L2.3,10c-1-1-1.5-2.3-1.5-3.8c0-1.4,0.6-2.8,1.6-3.8
	c1-1,2.4-1.6,3.8-1.6c1.4,0,2.8,0.5,3.8,1.5L16,8.4c0.3,0.3,0.3,0.8,0,1.1s-0.8,0.3-1.1,0L8.9,3.4C8.2,2.6,7.2,2.3,6.2,2.3
	c-1,0-2,0.4-2.8,1.2S2.3,5.2,2.2,6.2c0,1,0.4,2,1.1,2.7l5.3,5.3c0.3,0.3,0.3,0.8,0,1.1C8.5,15.4,8.3,15.5,8.1,15.5z"/>
<path class="st0" d="M12.4,19.8c-0.2,0-0.4-0.1-0.5-0.2c-1-1-1.5-2.3-1.5-3.8c0-1.4,0.6-2.8,1.6-3.8c0.3-0.3,0.8-0.3,1.1,0
	s0.3,0.8,0,1.1c-0.7,0.7-1.2,1.7-1.2,2.8c0,1,0.4,2,1.1,2.7c0.3,0.3,0.3,0.8,0,1.1C12.8,19.7,12.6,19.8,12.4,19.8z M15.4,16.2
	c-0.2,0-0.4-0.1-0.5-0.2c-0.3-0.3-0.3-0.8,0-1.1c0.7-0.7,1.2-1.7,1.2-2.8c0-1-0.4-2-1.1-2.7c-0.3-0.3-0.3-0.8,0-1.1s0.8-0.3,1.1,0
	c1,1,1.5,2.3,1.5,3.8c0,1.4-0.6,2.8-1.6,3.8C15.8,16.1,15.6,16.2,15.4,16.2z"/>
</svg>
