<?xml version="1.0" encoding="utf-8"?>
<!-- Generator: Adobe Illustrator 23.0.5, SVG Export Plug-In . SVG Version: 6.00 Build 0)  -->
<svg version="1.1" id="Слой_1" xmlns="http://www.w3.org/2000/svg" xmlns:xlink="http://www.w3.org/1999/xlink" x="0px" y="0px"
	 viewBox="0 0 22 22" style="enable-background:new 0 0 22 22;" xml:space="preserve">
<style type="text/css">
	.st0{fill:#8E8F9B;}
</style>
<path class="st0" d="M17.3,21.8C17.3,21.8,17.3,21.8,17.3,21.8H3c-0.7,0-1.4-0.3-1.9-0.8S0.3,19.7,0.3,19v-7c0-0.7,0.3-1.4,0.8-1.9
	S2.3,9.3,3,9.3h2.5l3.8-8.6C9.4,0.4,9.7,0.3,10,0.3c1,0,1.9,0.4,2.7,1.1C13.4,2.1,13.8,3,13.8,4v3.3h4.9c0.4,0,0.8,0.1,1.1,0.2
	c0.4,0.2,0.7,0.4,0.9,0.7c0.3,0.3,0.5,0.7,0.6,1c0.1,0.4,0.1,0.8,0.1,1.2l-1.4,9c-0.1,0.7-0.4,1.3-0.9,1.7
	C18.6,21.5,18,21.8,17.3,21.8z M6.8,20.3h10.5c0.3,0,0.6-0.1,0.8-0.3c0.2-0.2,0.4-0.5,0.4-0.8l1.4-9c0-0.2,0-0.4,0-0.5
	c-0.1-0.2-0.1-0.3-0.3-0.5c-0.1-0.1-0.3-0.2-0.4-0.3c-0.2-0.1-0.4-0.1-0.5-0.1H13c-0.4,0-0.8-0.3-0.8-0.8V4c0-0.6-0.2-1.2-0.7-1.6
	c-0.3-0.3-0.7-0.5-1.1-0.6l-3.7,8.4V20.3z M3,10.8c-0.3,0-0.7,0.1-0.9,0.4c-0.2,0.2-0.4,0.6-0.4,0.9v7c0,0.3,0.1,0.7,0.4,0.9
	s0.6,0.4,0.9,0.4h2.3v-9.5H3z"/>
</svg>
