<svg width="24" height="30" viewBox="0 0 24 30" fill="none" xmlns="http://www.w3.org/2000/svg">
<path d="M21.3335 1.66699H2.66683C1.93045 1.66699 1.3335 2.26395 1.3335 3.00033V27.0003C1.3335 27.7367 1.93045 28.3337 2.66683 28.3337H21.3335C22.0699 28.3337 22.6668 27.7367 22.6668 27.0003V3.00033C22.6668 2.26395 22.0699 1.66699 21.3335 1.66699Z" stroke="#262C3C" stroke-width="1.5" stroke-linejoin="round"/>
<path d="M10 8.33398H18M10 15.0007H18M10 21.6673H18" stroke="#262C3C" stroke-width="1.5" stroke-linecap="round" stroke-linejoin="round"/>
<path fill-rule="evenodd" clip-rule="evenodd" d="M6.00033 9.66667C6.35395 9.66667 6.69309 9.52619 6.94313 9.27614C7.19318 9.02609 7.33366 8.68696 7.33366 8.33333C7.33366 7.97971 7.19318 7.64057 6.94313 7.39052C6.69309 7.14048 6.35395 7 6.00033 7C5.6467 7 5.30757 7.14048 5.05752 7.39052C4.80747 7.64057 4.66699 7.97971 4.66699 8.33333C4.66699 8.68696 4.80747 9.02609 5.05752 9.27614C5.30757 9.52619 5.6467 9.66667 6.00033 9.66667ZM6.00033 16.3333C6.35395 16.3333 6.69309 16.1929 6.94313 15.9428C7.19318 15.6928 7.33366 15.3536 7.33366 15C7.33366 14.6464 7.19318 14.3072 6.94313 14.0572C6.69309 13.8071 6.35395 13.6667 6.00033 13.6667C5.6467 13.6667 5.30757 13.8071 5.05752 14.0572C4.80747 14.3072 4.66699 14.6464 4.66699 15C4.66699 15.3536 4.80747 15.6928 5.05752 15.9428C5.30757 16.1929 5.6467 16.3333 6.00033 16.3333ZM6.00033 23C6.35395 23 6.69309 22.8595 6.94313 22.6095C7.19318 22.3594 7.33366 22.0203 7.33366 21.6667C7.33366 21.313 7.19318 20.9739 6.94313 20.7239C6.69309 20.4738 6.35395 20.3333 6.00033 20.3333C5.6467 20.3333 5.30757 20.4738 5.05752 20.7239C4.80747 20.9739 4.66699 21.313 4.66699 21.6667C4.66699 22.0203 4.80747 22.3594 5.05752 22.6095C5.30757 22.8595 5.6467 23 6.00033 23Z" fill="#262C3C"/>
</svg>
