<svg width="29" height="26" viewBox="0 0 29 26" fill="none" xmlns="http://www.w3.org/2000/svg">
<path d="M26.9997 9H21.6663L17.6663 5L21.6663 1H26.9997M2.33301 20.3333C2.33301 19.9797 2.47348 19.6406 2.72353 19.3905C2.97358 19.1405 3.31272 19 3.66634 19H26.333C26.6866 19 27.0258 19.1405 27.2758 19.3905C27.5259 19.6406 27.6663 19.9797 27.6663 20.3333V25H2.33301V20.3333Z" stroke="#262C3C" stroke-width="1.5" stroke-linecap="round" stroke-linejoin="round"/>
<path d="M4.33317 7.66634C5.80593 7.66634 6.99984 6.47243 6.99984 4.99967C6.99984 3.52692 5.80593 2.33301 4.33317 2.33301C2.86041 2.33301 1.6665 3.52692 1.6665 4.99967C1.6665 6.47243 2.86041 7.66634 4.33317 7.66634Z" stroke="#262C3C" stroke-width="1.5"/>
<path d="M6.99984 5H17.6665M5.6665 7.66667L10.9998 19" stroke="#262C3C" stroke-width="1.5" stroke-linecap="round" stroke-linejoin="round"/>
</svg>
