<?xml version="1.0" encoding="utf-8"?>
<!-- Generator: Adobe Illustrator 23.0.5, SVG Export Plug-In . SVG Version: 6.00 Build 0)  -->
<svg version="1.1" id="Слой_1" xmlns="http://www.w3.org/2000/svg" xmlns:xlink="http://www.w3.org/1999/xlink" x="0px" y="0px"
	 viewBox="0 0 29 26" style="enable-background:new 0 0 29 26;" xml:space="preserve">
<style type="text/css">
	.st0{fill:#262C3C;}
</style>
<path class="st0" d="M27.7,25.8H2.3c-0.4,0-0.8-0.3-0.8-0.8v-4.7c0-0.6,0.2-1.1,0.6-1.5s0.9-0.6,1.5-0.6h22.7c0.6,0,1.1,0.2,1.5,0.6
	c0.4,0.4,0.6,0.9,0.6,1.5V25C28.4,25.4,28.1,25.8,27.7,25.8z M3.1,24.3h23.8v-3.9c0-0.2-0.1-0.3-0.2-0.4c-0.1-0.1-0.3-0.2-0.4-0.2
	H3.7c-0.2,0-0.3,0.1-0.4,0.2s-0.2,0.3-0.2,0.4V24.3z M27,9.8h-5.3c-0.2,0-0.4-0.1-0.5-0.2l-4-4c-0.3-0.3-0.3-0.8,0-1.1l4-4
	c0.1-0.1,0.3-0.2,0.5-0.2H27c0.4,0,0.8,0.3,0.8,0.8S27.4,1.8,27,1.8h-5L18.7,5L22,8.3h5c0.4,0,0.8,0.3,0.8,0.8S27.4,9.8,27,9.8z"/>
<path class="st0" d="M4.3,8.4C2.4,8.4,0.9,6.9,0.9,5c0-1.9,1.5-3.4,3.4-3.4c1.9,0,3.4,1.5,3.4,3.4C7.8,6.9,6.2,8.4,4.3,8.4z
	 M4.3,3.1C3.3,3.1,2.4,3.9,2.4,5c0,1.1,0.9,1.9,1.9,1.9c1.1,0,1.9-0.9,1.9-1.9C6.3,3.9,5.4,3.1,4.3,3.1z"/>
<path class="st0" d="M11,19.8c-0.3,0-0.6-0.2-0.7-0.4L5,8C4.8,7.6,5,7.2,5.3,7c0.4-0.2,0.8,0,1,0.4l5.3,11.3c0.2,0.4,0,0.8-0.4,1
	C11.2,19.7,11.1,19.8,11,19.8z M17.7,5.8H7C6.6,5.8,6.3,5.4,6.3,5S6.6,4.3,7,4.3h10.7c0.4,0,0.8,0.3,0.8,0.8S18.1,5.8,17.7,5.8z"/>
</svg>
