<svg width="29" height="28" viewBox="0 0 29 28" fill="none" xmlns="http://www.w3.org/2000/svg">
<path d="M27.6667 14V25.212C27.6667 26.0153 27.07 26.6667 26.3333 26.6667H2.33333C1.59667 26.6667 1 26.0153 1 25.212V14L14.3333 22.6667L27.6667 14Z" stroke="#535460" stroke-width="1.5" stroke-linejoin="round"/>
<path d="M1 13.8554L7.66667 9.26074M27.6667 13.8554L21 9.26074" stroke="#535460" stroke-width="1.5" stroke-linecap="round" stroke-linejoin="round"/>
<path d="M20.9998 1.33301H7.6665V17.6097C7.66649 17.8318 7.72198 18.0504 7.82792 18.2457C7.93387 18.4409 8.08692 18.6066 8.27317 18.7277L13.6065 22.1943C13.8228 22.3349 14.0752 22.4098 14.3332 22.4098C14.5911 22.4098 14.8436 22.3349 15.0598 22.1943L20.3932 18.7277C20.5794 18.6066 20.7325 18.4409 20.8384 18.2457C20.9444 18.0504 20.9999 17.8318 20.9998 17.6097V1.33301Z" stroke="#535460" stroke-width="1.5" stroke-linejoin="round"/>
<path d="M11.6665 6.66602H14.3332M11.6665 10.666H16.9998" stroke="#535460" stroke-width="1.5" stroke-linecap="round" stroke-linejoin="round"/>
</svg>
