<?xml version="1.0" encoding="utf-8"?>
<!-- Generator: Adobe Illustrator 23.0.5, SVG Export Plug-In . SVG Version: 6.00 Build 0)  -->
<svg version="1.1" id="Слой_1" xmlns="http://www.w3.org/2000/svg" xmlns:xlink="http://www.w3.org/1999/xlink" x="0px" y="0px"
	 viewBox="0 0 29 28" style="enable-background:new 0 0 29 28;" xml:space="preserve">
<style type="text/css">
	.st0{fill:#535460;}
</style>
<path class="st0" d="M26.3,27.4h-24c-1.1,0-2.1-1-2.1-2.2V14c0-0.3,0.2-0.5,0.4-0.7c0.2-0.1,0.5-0.1,0.8,0l12.9,8.4l12.9-8.4
	c0.2-0.2,0.5-0.2,0.8,0c0.2,0.1,0.4,0.4,0.4,0.7v11.2C28.4,26.4,27.5,27.4,26.3,27.4z M1.8,15.4v9.8c0,0.4,0.3,0.7,0.6,0.7h24
	c0.3,0,0.6-0.3,0.6-0.7v-9.8l-12.2,7.9c-0.2,0.2-0.6,0.2-0.8,0L1.8,15.4z"/>
<path class="st0" d="M1,14.6c-0.2,0-0.5-0.1-0.6-0.3c-0.2-0.3-0.1-0.8,0.2-1l6.7-4.6c0.3-0.2,0.8-0.1,1,0.2c0.2,0.3,0.1,0.8-0.2,1
	l-6.7,4.6C1.3,14.6,1.1,14.6,1,14.6z M27.7,14.6c-0.1,0-0.3,0-0.4-0.1l-6.7-4.6c-0.3-0.2-0.4-0.7-0.2-1c0.2-0.3,0.7-0.4,1-0.2
	l6.7,4.6c0.3,0.2,0.4,0.7,0.2,1C28.1,14.5,27.9,14.6,27.7,14.6z"/>
<path class="st0" d="M14.3,23.2c-0.4,0-0.8-0.1-1.1-0.3l-5.3-3.5c-0.3-0.2-0.5-0.4-0.7-0.8c-0.2-0.3-0.3-0.7-0.3-1V1.3
	c0-0.4,0.3-0.8,0.8-0.8H21c0.4,0,0.8,0.3,0.8,0.8v16.3c0,0.3-0.1,0.7-0.3,1c-0.2,0.3-0.4,0.6-0.7,0.8l-5.3,3.5
	C15.1,23,14.7,23.2,14.3,23.2z M8.4,2.1v15.5c0,0.1,0,0.2,0.1,0.3c0,0.1,0.1,0.2,0.2,0.2l5.3,3.5c0.2,0.1,0.4,0.1,0.6,0l5.3-3.5
	c0.1-0.1,0.1-0.1,0.2-0.2c0-0.1,0.1-0.2,0.1-0.3V2.1H8.4z"/>
<path class="st0" d="M17,11.4h-5.3c-0.4,0-0.8-0.3-0.8-0.8s0.3-0.8,0.8-0.8H17c0.4,0,0.8,0.3,0.8,0.8S17.4,11.4,17,11.4z M14.3,7.4
	h-2.7c-0.4,0-0.8-0.3-0.8-0.8s0.3-0.8,0.8-0.8h2.7c0.4,0,0.8,0.3,0.8,0.8S14.7,7.4,14.3,7.4z"/>
</svg>
