<?xml version="1.0" encoding="utf-8"?>
<!-- Generator: Adobe Illustrator 23.0.5, SVG Export Plug-In . SVG Version: 6.00 Build 0)  -->
<svg version="1.1" id="Слой_1" xmlns="http://www.w3.org/2000/svg" xmlns:xlink="http://www.w3.org/1999/xlink" x="0px" y="0px"
	 viewBox="0 0 26 26" style="enable-background:new 0 0 26 26;" xml:space="preserve">
<style type="text/css">
	.st0{fill:#FFFFFF;}
</style>
<path class="st0" d="M13,25.8C13,25.8,13,25.8,13,25.8C8.1,25.8,3.9,23,1.8,19v4.7c0,0.4-0.3,0.8-0.8,0.8s-0.8-0.3-0.8-0.8V13
	c0-0.4,0.3-0.8,0.8-0.8s0.8,0.3,0.8,0.8c0,6.2,5,11.3,11.3,11.3c0,0,0,0,0,0c2.9,0,5.7-1.1,7.8-3.2c0.3-0.3,0.8-0.3,1.1,0
	c0.3,0.3,0.3,0.8,0,1.1C19.5,24.5,16.3,25.8,13,25.8z M25,13.8c-0.4,0-0.8-0.3-0.8-0.8c0-6.2-5-11.3-11.3-11.3c0,0,0,0,0,0
	c-1.5,0-3,0.3-4.4,0.9C7.2,3.2,6,4.1,4.9,5.2c-0.3,0.3-0.8,0.3-1.1,0c-0.3-0.3-0.3-0.8,0-1.1C5,2.9,6.4,1.9,8,1.3c1.6-0.7,3.3-1,5-1
	c0,0,0,0,0,0c4.9,0,9.1,2.7,11.2,6.8V2.3c0-0.4,0.3-0.8,0.8-0.8s0.8,0.3,0.8,0.8V13C25.8,13.4,25.4,13.8,25,13.8z"/>
</svg>
