<?xml version="1.0" encoding="utf-8"?>
<!-- Generator: Adobe Illustrator 23.0.5, SVG Export Plug-In . SVG Version: 6.00 Build 0)  -->
<svg version="1.1" id="Слой_1" xmlns="http://www.w3.org/2000/svg" xmlns:xlink="http://www.w3.org/1999/xlink" x="0px" y="0px"
	 viewBox="0 0 30 30" style="enable-background:new 0 0 30 30;" xml:space="preserve">
<style type="text/css">
	.st0{fill:#FFFFFF;}
</style>
<path class="st0" d="M15,29.1C7.2,29.1,0.9,22.8,0.9,15l0,0c0-1.9,0.4-3.7,1.1-5.4c0.7-1.7,1.7-3.3,3-4.6c0,0,0,0,0,0
	C6.3,3.7,7.9,2.7,9.6,2c1.7-0.7,3.5-1,5.4-1.1c1.8,0,3.7,0.4,5.4,1.1c1.7,0.7,3.3,1.7,4.6,3.1c1.3,1.3,2.3,2.8,3,4.6
	c0.7,1.7,1.1,3.5,1.1,5.4l0,0C29.1,22.8,22.8,29.1,15,29.1z M2.4,15.8C2.8,22.3,8.3,27.6,15,27.6c6.7,0,12.2-5.2,12.6-11.8h-1.9
	c-0.4,0-0.8-0.3-0.8-0.8s0.3-0.8,0.8-0.8h1.9c-0.1-1.4-0.4-2.8-0.9-4.1c-0.5-1.3-1.3-2.5-2.2-3.5l-1.5,1.5c-0.3,0.3-0.8,0.3-1.1,0
	s-0.3-0.8,0-1.1l1.5-1.5c-1-0.9-2.2-1.7-3.5-2.2c-1.3-0.5-2.7-0.9-4.1-0.9v1.9c0,0.4-0.3,0.8-0.8,0.8s-0.8-0.3-0.8-0.8V2.4
	c-1.4,0.1-2.8,0.4-4.1,0.9C8.9,3.9,7.7,4.7,6.6,5.6l1.5,1.5c0.3,0.3,0.3,0.8,0,1.1s-0.8,0.3-1.1,0L5.6,6.7c-0.9,1-1.7,2.2-2.2,3.5
	c-0.5,1.3-0.9,2.7-0.9,4.1h1.9c0.4,0,0.8,0.3,0.8,0.8s-0.3,0.8-0.8,0.8H2.4z M15,21.1c-0.4,0-0.8-0.3-0.8-0.8v-8
	c0-0.4,0.3-0.8,0.8-0.8s0.8,0.3,0.8,0.8v8C15.8,20.7,15.4,21.1,15,21.1z"/>
<path class="st0" d="M15,29.1c-4.4,0-8.5-2-11.2-5.5c-0.1-0.2-0.2-0.4-0.1-0.6s0.2-0.4,0.4-0.5c3.3-1.9,7.1-2.9,10.9-2.9
	c0,0,0,0,0.1,0c3.8,0,7.6,1,10.9,2.9c0.2,0.1,0.3,0.3,0.4,0.5s0,0.4-0.1,0.6C23.5,27.1,19.4,29.1,15,29.1z M5.6,23.4
	c2.4,2.7,5.8,4.2,9.4,4.2c3.6,0,7-1.5,9.4-4.2c-2.9-1.5-6.1-2.3-9.4-2.3c0,0,0,0-0.1,0C11.7,21.1,8.5,21.9,5.6,23.4z"/>
</svg>
