<svg width="30" height="30" viewBox="0 0 30 30" fill="none" xmlns="http://www.w3.org/2000/svg">
<path d="M28.3332 15.0003C28.3332 22.3643 22.3638 28.3337 14.9998 28.3337C7.63585 28.3337 1.66651 22.3643 1.66651 15.0003M28.3332 15.0003C28.3354 13.251 27.9924 11.5185 27.3237 9.90197C26.655 8.28549 25.6739 6.81688 24.4365 5.58034M28.3332 15.0003H25.6665M24.4365 5.58034C23.1994 4.33796 21.7287 3.3526 20.1091 2.68098C18.4896 2.00936 16.7531 1.66475 14.9998 1.667M24.4365 5.58034L22.3498 7.667M14.9998 1.667C13.2466 1.66475 11.5101 2.00936 9.89058 2.68098C8.27103 3.3526 6.80033 4.33796 5.56318 5.58034M14.9998 1.667V4.33367M5.56318 5.58034C4.32581 6.81688 3.34466 8.28549 2.67599 9.90197C2.00732 11.5185 1.66427 13.251 1.66651 15.0003M5.56318 5.58034L7.64985 7.667M1.66651 15.0003H4.33318M14.9998 12.3337V20.3337" stroke="white" stroke-width="1.5" stroke-linecap="round" stroke-linejoin="round"/>
<path d="M25.5676 23.1313C23.1296 26.2953 19.303 28.334 14.9996 28.334C10.6963 28.334 6.86964 26.2953 4.43164 23.1313C7.64978 21.2925 11.2932 20.3281 14.9996 20.334C18.7061 20.3281 22.3495 21.2925 25.5676 23.1313Z" stroke="white" stroke-width="1.5" stroke-linecap="round" stroke-linejoin="round"/>
</svg>
