<svg width="25" height="30" viewBox="0 0 25 30" fill="none" xmlns="http://www.w3.org/2000/svg">
<path d="M22.6668 14.3337V8.33366L16.6668 1.66699H2.66683C2.31321 1.66699 1.97407 1.80747 1.72402 2.05752C1.47397 2.30756 1.3335 2.6467 1.3335 3.00033V27.0003C1.3335 27.3539 1.47397 27.6931 1.72402 27.9431C1.97407 28.1932 2.31321 28.3337 2.66683 28.3337H10.6668" stroke="#262C3C" stroke-width="1.5" stroke-linecap="round" stroke-linejoin="round"/>
<path d="M16.667 25.667C18.8761 25.667 20.667 23.8761 20.667 21.667C20.667 19.4579 18.8761 17.667 16.667 17.667C14.4579 17.667 12.667 19.4579 12.667 21.667C12.667 23.8761 14.4579 25.667 16.667 25.667Z" stroke="#262C3C" stroke-width="1.5"/>
<path d="M20 24.3337L23.3333 27.0003M16 1.66699V8.33366H22.6667" stroke="#262C3C" stroke-width="1.5" stroke-linecap="round" stroke-linejoin="round"/>
</svg>
