<?xml version="1.0" encoding="utf-8"?>
<!-- Generator: Adobe Illustrator 23.0.5, SVG Export Plug-In . SVG Version: 6.00 Build 0)  -->
<svg version="1.1" id="Слой_1" xmlns="http://www.w3.org/2000/svg" xmlns:xlink="http://www.w3.org/1999/xlink" x="0px" y="0px"
	 viewBox="0 0 25 30" style="enable-background:new 0 0 25 30;" xml:space="preserve">
<style type="text/css">
	.st0{fill:#262C3C;}
</style>
<path class="st0" d="M10.7,29.1h-8c-0.6,0-1.1-0.2-1.5-0.6c-0.4-0.4-0.6-0.9-0.6-1.5V3c0-0.6,0.2-1.1,0.6-1.5s0.9-0.6,1.5-0.6h14
	c0.2,0,0.4,0.1,0.6,0.2l6,6.7c0.1,0.1,0.2,0.3,0.2,0.5v6c0,0.4-0.3,0.8-0.8,0.8s-0.8-0.3-0.8-0.8V8.6l-5.6-6.2H2.7
	c-0.2,0-0.3,0.1-0.4,0.2S2.1,2.8,2.1,3v24c0,0.2,0.1,0.3,0.2,0.4c0.1,0.1,0.3,0.2,0.4,0.2h8c0.4,0,0.8,0.3,0.8,0.8
	S11.1,29.1,10.7,29.1z"/>
<path class="st0" d="M16.7,26.4c-2.6,0-4.8-2.1-4.8-4.8s2.1-4.8,4.8-4.8s4.8,2.1,4.8,4.8S19.3,26.4,16.7,26.4z M16.7,18.4
	c-1.8,0-3.3,1.5-3.3,3.3s1.5,3.3,3.3,3.3s3.3-1.5,3.3-3.3S18.5,18.4,16.7,18.4z"/>
<path class="st0" d="M23.3,27.8c-0.2,0-0.3-0.1-0.5-0.2l-3.3-2.7c-0.3-0.3-0.4-0.7-0.1-1.1c0.3-0.3,0.7-0.4,1.1-0.1l3.3,2.7
	c0.3,0.3,0.4,0.7,0.1,1.1C23.8,27.7,23.6,27.8,23.3,27.8z M22.7,9.1H16c-0.4,0-0.8-0.3-0.8-0.8V1.7c0-0.4,0.3-0.8,0.8-0.8
	s0.8,0.3,0.8,0.8v5.9h5.9c0.4,0,0.8,0.3,0.8,0.8S23.1,9.1,22.7,9.1z"/>
</svg>
