<svg width="24" height="30" viewBox="0 0 24 30" fill="none" xmlns="http://www.w3.org/2000/svg">
<path d="M22.6668 17.0003V3.00033C22.6668 2.6467 22.5264 2.30756 22.2763 2.05752C22.0263 1.80747 21.6871 1.66699 21.3335 1.66699H2.66683C2.31321 1.66699 1.97407 1.80747 1.72402 2.05752C1.47397 2.30756 1.3335 2.6467 1.3335 3.00033V27.0003C1.3335 27.3539 1.47397 27.6931 1.72402 27.9431C1.97407 28.1932 2.31321 28.3337 2.66683 28.3337H10.0002M7.3335 7.00033H16.6668M7.3335 12.3337H16.6668M7.3335 17.667H11.3335" stroke="#262C3C" stroke-width="1.5" stroke-linecap="round" stroke-linejoin="round"/>
<path d="M21.9999 28.3336L19.6899 26.0236M19.6899 26.0236C20.0059 25.7155 20.2575 25.3477 20.4302 24.9417C20.6029 24.5356 20.6933 24.0992 20.6961 23.6579C20.6988 23.2166 20.614 22.7792 20.4463 22.371C20.2787 21.9628 20.0317 21.5919 19.7197 21.2799C19.4076 20.9678 19.0367 20.7209 18.6284 20.5533C18.2202 20.3858 17.7827 20.301 17.3414 20.3038C16.9002 20.3066 16.4638 20.397 16.0578 20.5698C15.6517 20.7426 15.284 20.9943 14.9759 21.3102C14.3554 21.9364 14.0082 22.7828 14.0103 23.6644C14.0123 24.5459 14.3635 25.3907 14.9869 26.014C15.6103 26.6372 16.4552 26.9881 17.3368 26.9899C18.2183 26.9917 19.064 26.6443 19.6899 26.0236Z" stroke="#262C3C" stroke-width="1.5" stroke-linecap="round" stroke-linejoin="round"/>
</svg>
