<?xml version="1.0" encoding="utf-8"?>
<!-- Generator: Adobe Illustrator 23.0.5, SVG Export Plug-In . SVG Version: 6.00 Build 0)  -->
<svg version="1.1" id="Слой_1" xmlns="http://www.w3.org/2000/svg" xmlns:xlink="http://www.w3.org/1999/xlink" x="0px" y="0px"
	 viewBox="0 0 24 30" style="enable-background:new 0 0 24 30;" xml:space="preserve">
<style type="text/css">
	.st0{fill:#262C3C;}
</style>
<path class="st0" d="M10,29.1H2.7c-0.6,0-1.1-0.2-1.5-0.6c-0.4-0.4-0.6-0.9-0.6-1.5V3c0-0.6,0.2-1.1,0.6-1.5s0.9-0.6,1.5-0.6h18.7
	c0.6,0,1.1,0.2,1.5,0.6s0.6,0.9,0.6,1.5v14c0,0.4-0.3,0.8-0.8,0.8s-0.8-0.3-0.8-0.8V3c0-0.2-0.1-0.3-0.2-0.4s-0.3-0.2-0.4-0.2H2.7
	c-0.2,0-0.3,0.1-0.4,0.2S2.1,2.8,2.1,3v24c0,0.2,0.1,0.3,0.2,0.4c0.1,0.1,0.3,0.2,0.4,0.2H10c0.4,0,0.8,0.3,0.8,0.8
	S10.4,29.1,10,29.1z M11.3,18.4h-4c-0.4,0-0.8-0.3-0.8-0.8s0.3-0.8,0.8-0.8h4c0.4,0,0.8,0.3,0.8,0.8S11.7,18.4,11.3,18.4z
	 M16.7,13.1H7.3c-0.4,0-0.8-0.3-0.8-0.8s0.3-0.8,0.8-0.8h9.3c0.4,0,0.8,0.3,0.8,0.8S17.1,13.1,16.7,13.1z M16.7,7.8H7.3
	C6.9,7.8,6.6,7.4,6.6,7s0.3-0.8,0.8-0.8h9.3c0.4,0,0.8,0.3,0.8,0.8S17.1,7.8,16.7,7.8z"/>
<path class="st0" d="M22,29.1c-0.2,0-0.4-0.1-0.5-0.2L19.6,27c-0.7,0.5-1.5,0.7-2.3,0.7c0,0,0,0,0,0c-1.1,0-2.1-0.4-2.9-1.2
	c-0.8-0.8-1.2-1.8-1.2-2.9c0-1.1,0.4-2.1,1.2-2.9c0.4-0.4,0.8-0.7,1.3-0.9c0.5-0.2,1-0.3,1.6-0.3c0.6,0,1.1,0.1,1.6,0.3
	c0.5,0.2,1,0.5,1.3,0.9c0.4,0.4,0.7,0.8,0.9,1.3s0.3,1,0.3,1.6c0,0.5-0.1,1.1-0.3,1.6c-0.1,0.3-0.3,0.5-0.4,0.7l1.8,1.8
	c0.3,0.3,0.3,0.8,0,1.1C22.4,29,22.2,29.1,22,29.1z M17.4,21.1C17.4,21.1,17.4,21.1,17.4,21.1c-0.4,0-0.7,0.1-1,0.2
	c-0.3,0.1-0.6,0.3-0.8,0.6c-0.5,0.5-0.8,1.2-0.8,1.8c0,0.7,0.3,1.3,0.8,1.8s1.1,0.8,1.8,0.8c0.7,0,1.3-0.3,1.8-0.7l0,0c0,0,0,0,0,0
	c0.2-0.2,0.4-0.5,0.6-0.8c0.1-0.3,0.2-0.7,0.2-1c0-0.3-0.1-0.7-0.2-1s-0.3-0.6-0.6-0.8c-0.2-0.2-0.5-0.4-0.8-0.6
	C18,21.1,17.7,21.1,17.4,21.1z"/>
</svg>
