<?xml version="1.0" encoding="utf-8"?>
<!-- Generator: Adobe Illustrator 23.0.5, SVG Export Plug-In . SVG Version: 6.00 Build 0)  -->
<svg version="1.1" id="Слой_1" xmlns="http://www.w3.org/2000/svg" xmlns:xlink="http://www.w3.org/1999/xlink" x="0px" y="0px"
	 viewBox="0 0 29 28" style="enable-background:new 0 0 29 28;" xml:space="preserve">
<style type="text/css">
	.st0{fill:#262C3C;}
</style>
<path class="st0" d="M22.7,27.4c-0.1,0-0.2,0-0.4-0.1l-7.9-4.2l-7.9,4.2c-0.3,0.1-0.6,0.1-0.8-0.1c-0.2-0.2-0.3-0.5-0.3-0.7l1.5-8.7
	l-6.4-6.3c-0.2-0.2-0.3-0.5-0.2-0.8s0.3-0.5,0.6-0.5L9.9,9l3.9-8c0.1-0.3,0.4-0.4,0.7-0.4c0,0,0,0,0,0c0.3,0,0.5,0.2,0.7,0.4l4,8
	l8.8,1.3c0.3,0,0.5,0.2,0.6,0.5c0.1,0.3,0,0.6-0.2,0.8l-6.4,6.3l1.5,8.7c0,0.3-0.1,0.6-0.3,0.7C23,27.4,22.9,27.4,22.7,27.4z
	 M14.5,21.5c0.1,0,0.2,0,0.4,0.1l6.9,3.7l-1.3-7.6c0-0.2,0-0.5,0.2-0.7l5.6-5.5l-7.7-1.1c-0.2,0-0.5-0.2-0.6-0.4l-3.5-7l-3.4,7
	c-0.1,0.2-0.3,0.4-0.6,0.4l-7.8,1.1L8.4,17c0.2,0.2,0.3,0.4,0.2,0.7l-1.3,7.6l6.9-3.7C14.3,21.6,14.4,21.5,14.5,21.5z"/>
</svg>
