<svg width="23" height="19" viewBox="0 0 23 19" fill="none" xmlns="http://www.w3.org/2000/svg">
<path fill-rule="evenodd" clip-rule="evenodd" d="M2.0532 7.78892C7.8836 5.2487 11.7715 3.57404 13.7167 2.76492C19.271 0.454736 20.4251 0.0534317 21.1773 0.0401804C21.3428 0.0372659 21.7127 0.0782686 21.9523 0.272707C22.1547 0.436887 22.2103 0.658671 22.237 0.814332C22.2636 0.969992 22.2968 1.32459 22.2704 1.60167C21.9694 4.76414 20.6671 12.4386 20.0045 15.9806C19.7241 17.4794 19.1721 17.9819 18.6377 18.0311C17.4762 18.138 16.5943 17.2636 15.4694 16.5262C13.7091 15.3723 12.7147 14.654 11.0061 13.528C9.03144 12.2268 10.3115 11.5116 11.4368 10.3428C11.7313 10.0369 16.8487 5.3823 16.9477 4.96005C16.9601 4.90724 16.9716 4.7104 16.8547 4.60645C16.7377 4.50251 16.5651 4.53806 16.4406 4.56632C16.264 4.60639 13.452 6.46505 8.00444 10.1423C7.20625 10.6904 6.48328 10.9574 5.83552 10.9434C5.12142 10.928 3.74777 10.5397 2.7266 10.2077C1.4741 9.80059 0.478638 9.58533 0.56532 8.89389C0.61047 8.53374 1.10643 8.16542 2.0532 7.78892Z" fill="#AEABAA"/>
</svg>
