<?xml version="1.0" encoding="utf-8"?>
<!-- Generator: Adobe Illustrator 23.0.5, SVG Export Plug-In . SVG Version: 6.00 Build 0)  -->
<svg version="1.1" id="Слой_1" xmlns="http://www.w3.org/2000/svg" xmlns:xlink="http://www.w3.org/1999/xlink" x="0px" y="0px"
	 viewBox="0 0 24 24" style="enable-background:new 0 0 24 24;" xml:space="preserve">
<style type="text/css">
	.st0{fill:#002B55;}
</style>
<path class="st0" d="M20,21.8c-0.4,0-0.8-0.3-0.8-0.8v-2c0-0.9-0.3-1.7-1-2.3s-1.4-1-2.3-1H8c-0.9,0-1.7,0.3-2.3,1
	c-0.6,0.6-1,1.4-1,2.3v2c0,0.4-0.3,0.8-0.8,0.8S3.3,21.4,3.3,21v-2c0-1.3,0.5-2.5,1.4-3.4c0.9-0.9,2.1-1.4,3.4-1.4h8
	c1.3,0,2.5,0.5,3.4,1.4s1.4,2.1,1.4,3.4v2C20.8,21.4,20.4,21.8,20,21.8z"/>
<path class="st0" d="M12,11.8c-2.6,0-4.8-2.1-4.8-4.8S9.4,2.3,12,2.3s4.8,2.1,4.8,4.8S14.6,11.8,12,11.8z M12,3.8
	c-1.8,0-3.3,1.5-3.3,3.3s1.5,3.3,3.3,3.3s3.3-1.5,3.3-3.3S13.8,3.8,12,3.8z"/>
</svg>
