<svg width="30" height="30" viewBox="0 0 30 30" fill="none" xmlns="http://www.w3.org/2000/svg">
<path d="M8.33333 21.6667C10.1743 21.6667 11.6667 20.1743 11.6667 18.3333C11.6667 16.4924 10.1743 15 8.33333 15C6.49238 15 5 16.4924 5 18.3333C5 20.1743 6.49238 21.6667 8.33333 21.6667Z" stroke="#535460" stroke-width="1.5" stroke-linecap="round" stroke-linejoin="round"/>
<path d="M21.6663 21.6667C23.5073 21.6667 24.9997 20.1743 24.9997 18.3333C24.9997 16.4924 23.5073 15 21.6663 15C19.8254 15 18.333 16.4924 18.333 18.3333C18.333 20.1743 19.8254 21.6667 21.6663 21.6667Z" stroke="#535460" stroke-width="1.5" stroke-linecap="round" stroke-linejoin="round"/>
<path d="M14.9998 8.33366C16.8408 8.33366 18.3332 6.84127 18.3332 5.00033C18.3332 3.15938 16.8408 1.66699 14.9998 1.66699C13.1589 1.66699 11.6665 3.15938 11.6665 5.00033C11.6665 6.84127 13.1589 8.33366 14.9998 8.33366Z" stroke="#535460" stroke-width="1.5" stroke-linecap="round" stroke-linejoin="round"/>
<path d="M1.6665 28.334C1.6665 24.652 4.65117 21.6673 8.33317 21.6673C12.0152 21.6673 14.9998 24.652 14.9998 28.334C14.9998 24.652 17.9845 21.6673 21.6665 21.6673C25.3485 21.6673 28.3332 24.652 28.3332 28.334M21.6665 15.0007C21.6665 11.3187 18.6818 8.33398 14.9998 8.33398C11.3178 8.33398 8.33317 11.3187 8.33317 15.0007" stroke="#535460" stroke-width="1.5" stroke-linecap="round" stroke-linejoin="round"/>
</svg>
