<?xml version="1.0" encoding="utf-8"?>
<!-- Generator: Adobe Illustrator 23.0.5, SVG Export Plug-In . SVG Version: 6.00 Build 0)  -->
<svg version="1.1" id="Слой_1" xmlns="http://www.w3.org/2000/svg" xmlns:xlink="http://www.w3.org/1999/xlink" x="0px" y="0px"
	 viewBox="0 0 30 30" style="enable-background:new 0 0 30 30;" xml:space="preserve">
<style type="text/css">
	.st0{fill:#535460;}
</style>
<path class="st0" d="M8.3,22.4c-2.3,0-4.1-1.8-4.1-4.1c0-2.3,1.8-4.1,4.1-4.1s4.1,1.8,4.1,4.1C12.4,20.6,10.6,22.4,8.3,22.4z
	 M8.3,15.8c-1.4,0-2.6,1.2-2.6,2.6c0,1.4,1.2,2.6,2.6,2.6s2.6-1.2,2.6-2.6C10.9,16.9,9.8,15.8,8.3,15.8z"/>
<path class="st0" d="M21.7,22.4c-2.3,0-4.1-1.8-4.1-4.1c0-2.3,1.8-4.1,4.1-4.1c2.3,0,4.1,1.8,4.1,4.1C25.8,20.6,23.9,22.4,21.7,22.4
	z M21.7,15.8c-1.4,0-2.6,1.2-2.6,2.6c0,1.4,1.2,2.6,2.6,2.6c1.4,0,2.6-1.2,2.6-2.6C24.3,16.9,23.1,15.8,21.7,15.8z"/>
<path class="st0" d="M15,9.1c-2.3,0-4.1-1.8-4.1-4.1s1.8-4.1,4.1-4.1c2.3,0,4.1,1.8,4.1,4.1S17.3,9.1,15,9.1z M15,2.4
	c-1.4,0-2.6,1.2-2.6,2.6s1.2,2.6,2.6,2.6c1.4,0,2.6-1.2,2.6-2.6S16.4,2.4,15,2.4z"/>
<path class="st0" d="M28.3,29.1c-0.4,0-0.8-0.3-0.8-0.8c0-3.3-2.7-5.9-5.9-5.9c-3.3,0-5.9,2.7-5.9,5.9c0,0.4-0.3,0.8-0.8,0.8
	s-0.8-0.3-0.8-0.8c0-3.3-2.7-5.9-5.9-5.9c-3.3,0-5.9,2.7-5.9,5.9c0,0.4-0.3,0.8-0.8,0.8s-0.8-0.3-0.8-0.8c0-4.1,3.3-7.4,7.4-7.4
	c2.9,0,5.5,1.7,6.7,4.2c1.2-2.5,3.7-4.2,6.7-4.2c4.1,0,7.4,3.3,7.4,7.4C29.1,28.7,28.7,29.1,28.3,29.1z M21.7,15.8
	c-0.4,0-0.8-0.3-0.8-0.8c0-3.3-2.7-5.9-5.9-5.9c-3.3,0-5.9,2.7-5.9,5.9c0,0.4-0.3,0.8-0.8,0.8S7.6,15.4,7.6,15
	c0-4.1,3.3-7.4,7.4-7.4c4.1,0,7.4,3.3,7.4,7.4C22.4,15.4,22.1,15.8,21.7,15.8z"/>
</svg>
