<svg width="23" height="23" viewBox="0 0 23 23" fill="none" xmlns="http://www.w3.org/2000/svg">
<g clip-path="url(#clip0_6301_1105)">
<path fill-rule="evenodd" clip-rule="evenodd" d="M20.4724 14.1425C20.4724 14.1425 22.332 15.9791 22.792 16.8289C22.8015 16.8409 22.8085 16.8545 22.8127 16.8692C22.9997 17.1828 23.0469 17.43 22.9541 17.6109C22.7989 17.9111 22.2733 18.0617 22.0951 18.0744H18.8084C18.5795 18.0744 18.1034 18.0146 17.5238 17.6144C17.0811 17.305 16.6406 16.7956 16.214 16.2976C15.5769 15.5582 15.026 14.9165 14.4683 14.9165C14.3979 14.9174 14.3281 14.929 14.2613 14.951C13.8392 15.0844 13.3033 15.6858 13.3033 17.2878C13.3033 17.7892 12.9077 18.0744 12.6306 18.0744H11.1252C10.6123 18.0744 7.942 17.895 5.57415 15.3983C2.6727 12.3416 0.0668036 6.20984 0.0415036 6.15579C-0.120646 5.75904 0.219754 5.54284 0.587754 5.54284H3.90665C4.3517 5.54284 4.4966 5.81194 4.5978 6.05344C4.7151 6.33059 5.1498 7.43919 5.8628 8.68464C7.0174 10.7109 7.72695 11.5355 8.2939 11.5355C8.4004 11.5356 8.50507 11.5079 8.5975 11.455C9.3381 11.0479 9.2001 8.40289 9.1656 7.85779C9.1656 7.75199 9.16445 6.67674 8.78495 6.15694C8.51355 5.78434 8.05125 5.63944 7.7718 5.58654C7.84655 5.47844 8.00525 5.31284 8.2088 5.21509C8.71595 4.96209 9.6325 4.92529 10.5422 4.92529H11.047C12.0337 4.93909 12.289 5.00234 12.6478 5.09319C13.37 5.26569 13.3838 5.73374 13.3206 7.32764C13.3022 7.78304 13.2826 8.29594 13.2826 8.89969C13.2826 9.02849 13.2769 9.17224 13.2769 9.31829C13.255 10.1359 13.2263 11.0571 13.8036 11.4354C13.8782 11.4827 13.9648 11.5074 14.0531 11.5067C14.2532 11.5067 14.8524 11.5067 16.4773 8.71799C17.1903 7.48634 17.7423 6.03389 17.7803 5.92464C17.8125 5.86369 17.9091 5.69234 18.0264 5.62334C18.1102 5.57993 18.2034 5.55781 18.2978 5.55894H22.202C22.6275 5.55894 22.9162 5.62334 22.9725 5.78434C23.0668 6.04539 22.9541 6.84234 21.1716 9.25274C20.8715 9.65409 20.6081 10.0014 20.377 10.305C18.7612 12.4256 18.7612 12.5325 20.4724 14.1425Z" fill="#AEABAA"/>
</g>
<defs>
<clipPath id="clip0_6301_1105">
<rect width="23" height="23" fill="white"/>
</clipPath>
</defs>
</svg>
