<svg width="30" height="24" viewBox="0 0 30 24" fill="none" xmlns="http://www.w3.org/2000/svg">
<path d="M26.3332 1.33301H3.6665C2.56193 1.33301 1.6665 2.22844 1.6665 3.33301V20.6663C1.6665 21.7709 2.56193 22.6663 3.6665 22.6663H26.3332C27.4377 22.6663 28.3332 21.7709 28.3332 20.6663V3.33301C28.3332 2.22844 27.4377 1.33301 26.3332 1.33301Z" stroke="#535460" stroke-width="1.5" stroke-linejoin="round"/>
<path d="M1.6665 3.33301C1.6665 2.80257 1.87722 2.29387 2.25229 1.91879C2.62736 1.54372 3.13607 1.33301 3.6665 1.33301H26.3332C26.8636 1.33301 27.3723 1.54372 27.7474 1.91879C28.1225 2.29387 28.3332 2.80257 28.3332 3.33301V9.33301H1.6665V3.33301Z" stroke="#535460" stroke-width="1.5"/>
<path d="M4.33333 5.33268C4.33333 4.5963 4.93029 3.99935 5.66667 3.99935C6.40305 3.99935 7 4.5963 7 5.33268C7 6.06906 6.40305 6.66602 5.66667 6.66602C4.93029 6.66602 4.33333 6.06906 4.33333 5.33268Z" fill="#535460"/>
<path d="M8.33333 5.33268C8.33333 4.5963 8.93029 3.99935 9.66667 3.99935C10.403 3.99935 11 4.5963 11 5.33268C11 6.06906 10.403 6.66602 9.66667 6.66602C8.93029 6.66602 8.33333 6.06906 8.33333 5.33268Z" fill="#535460"/>
</svg>
