<?xml version="1.0" encoding="utf-8"?>
<!-- Generator: Adobe Illustrator 23.0.5, SVG Export Plug-In . SVG Version: 6.00 Build 0)  -->
<svg version="1.1" id="Слой_1" xmlns="http://www.w3.org/2000/svg" xmlns:xlink="http://www.w3.org/1999/xlink" x="0px" y="0px"
	 viewBox="0 0 30 24" style="enable-background:new 0 0 30 24;" xml:space="preserve">
<style type="text/css">
	.st0{fill:#535460;}
</style>
<path class="st0" d="M26.3,23.4H3.7c-1.5,0-2.8-1.2-2.8-2.8V3.3c0-1.5,1.2-2.8,2.8-2.8h22.7c1.5,0,2.8,1.2,2.8,2.8v17.3
	C29.1,22.2,27.8,23.4,26.3,23.4z M3.7,2.1C3,2.1,2.4,2.6,2.4,3.3v17.3c0,0.7,0.6,1.3,1.3,1.3h22.7c0.7,0,1.3-0.6,1.3-1.3V3.3
	c0-0.7-0.6-1.3-1.3-1.3H3.7z"/>
<path class="st0" d="M29.1,10.1H0.9V3.3c0-0.7,0.3-1.4,0.8-1.9s1.2-0.8,1.9-0.8h22.7c0.7,0,1.4,0.3,1.9,0.8s0.8,1.2,0.8,1.9V10.1z
	 M2.4,8.6h25.2V3.3c0-0.3-0.1-0.7-0.4-0.9s-0.6-0.4-0.9-0.4H3.7C3.3,2.1,3,2.2,2.8,2.4S2.4,3,2.4,3.3V8.6z"/>
<path class="st0" d="M4.3,5.3C4.3,4.6,4.9,4,5.7,4S7,4.6,7,5.3S6.4,6.7,5.7,6.7S4.3,6.1,4.3,5.3z"/>
<path class="st0" d="M8.3,5.3C8.3,4.6,8.9,4,9.7,4C10.4,4,11,4.6,11,5.3s-0.6,1.3-1.3,1.3C8.9,6.7,8.3,6.1,8.3,5.3z"/>
</svg>
