<?xml version="1.0" encoding="utf-8"?>
<!-- Generator: Adobe Illustrator 23.0.5, SVG Export Plug-In . SVG Version: 6.00 Build 0)  -->
<svg version="1.1" id="Слой_1" xmlns="http://www.w3.org/2000/svg" xmlns:xlink="http://www.w3.org/1999/xlink" x="0px" y="0px"
	 viewBox="0 0 24 17" style="enable-background:new 0 0 24 17;" xml:space="preserve">
<style type="text/css">
	.st0{fill:#AEABAA;}
</style>
<path class="st0" d="M23.5,2.7c-0.1-0.5-0.4-1-0.8-1.3c-0.4-0.4-0.8-0.6-1.3-0.8C19.5,0.1,12,0.1,12,0.1s-7.5,0-9.4,0.5
	C2.1,0.8,1.7,1,1.3,1.4C0.9,1.8,0.6,2.2,0.5,2.7c-0.6,3.3-0.8,8.4,0,11.5c0.1,0.5,0.4,1,0.8,1.3c0.4,0.4,0.8,0.6,1.3,0.8
	c1.9,0.5,9.4,0.5,9.4,0.5s7.5,0,9.4-0.5c0.5-0.1,1-0.4,1.3-0.8c0.4-0.4,0.6-0.8,0.8-1.3C24.1,11,24.3,5.9,23.5,2.7z M9.6,12.1V4.9
	l6.2,3.6L9.6,12.1z"/>
</svg>
